<?xml version="1.0" encoding="UTF-8" standalone="no"?>
<svg
   xmlns:dc="http://purl.org/dc/elements/1.1/"
   xmlns:cc="http://creativecommons.org/ns#"
   xmlns:rdf="http://www.w3.org/1999/02/22-rdf-syntax-ns#"
   xmlns:svg="http://www.w3.org/2000/svg"
   xmlns="http://www.w3.org/2000/svg"
   xmlns:sodipodi="http://sodipodi.sourceforge.net/DTD/sodipodi-0.dtd"
   xmlns:inkscape="http://www.inkscape.org/namespaces/inkscape"
   inkscape:version="1.0 (4035a4fb49, 2020-05-01)"
   height="9.9999981"
   width="10.000001"
   sodipodi:docname="kitchen-pack-steam-svgrepo-com.svg"
   xml:space="preserve"
   viewBox="0 0 10.000001 9.9999982"
   y="0px"
   x="0px"
   id="Layer_1"
   version="1.1"><metadata
   id="metadata67"><rdf:RDF><cc:Work
       rdf:about=""><dc:format>image/svg+xml</dc:format><dc:type
         rdf:resource="http://purl.org/dc/dcmitype/StillImage" /><dc:title></dc:title></cc:Work></rdf:RDF></metadata><defs
   id="defs65" /><sodipodi:namedview
   inkscape:current-layer="Layer_1"
   inkscape:window-maximized="1"
   inkscape:window-y="-11"
   inkscape:window-x="-11"
   inkscape:cy="49.829557"
   inkscape:cx="3.8201079"
   inkscape:zoom="6.2500123"
   fit-margin-bottom="0"
   fit-margin-right="0"
   fit-margin-left="0"
   fit-margin-top="0"
   showgrid="false"
   id="namedview63"
   inkscape:window-height="986"
   inkscape:window-width="1920"
   inkscape:pageshadow="2"
   inkscape:pageopacity="0"
   guidetolerance="10"
   gridtolerance="10"
   objecttolerance="10"
   borderopacity="1"
   bordercolor="#666666"
   pagecolor="#ffffff" />
<g
   transform="matrix(0.01953129,0,0,0.02233168,0,-0.71688614)"
   id="g6">
	<g
   id="g4">
		<path
   id="path2"
   d="m 197.865,254.311 c 0.663,2.535 1.105,3.639 1.105,5.42 v 64.907 c 0,0.138 0,0.278 0,0.417 v 56.495 c 0,53.994 43.855,98.346 97.848,98.346 h 117.011 c 53.994,0 98.17,-44.351 98.17,-98.346 V 254.31 H 197.865 Z" />
	</g>
</g>
<g
   transform="matrix(0.01953129,0,0,0.02233168,0,-0.71688614)"
   id="g12">
	<g
   id="g10">
		<path
   id="path8"
   d="m 0,254.311 v 12.208 c 0,10.206 7.774,19.034 17.869,20.533 l 155.754,23.115 v -50.436 c 0,-1.782 0.293,-2.886 0.957,-5.42 z" />
	</g>
</g>
<g
   transform="matrix(0.01953129,0,0,0.02233168,0,-0.71688614)"
   id="g18">
	<g
   id="g16">
		<path
   id="path14"
   d="m 293.242,159.962 -9.324,-7.492 c -3.595,-2.89 -5.622,-7.191 -5.558,-11.803 0.062,-4.612 2.204,-8.857 5.877,-11.648 12.872,-9.784 20.481,-24.665 20.875,-40.829 0.394,-16.165 -6.48,-31.398 -18.86,-41.798 -8.04,-6.752 -20.031,-5.709 -26.784,2.329 -6.753,8.038 -5.709,20.03 2.329,26.784 4.769,4.005 5.371,9.085 5.306,11.758 -0.065,2.672 -0.914,7.717 -5.873,11.486 -13.052,9.919 -20.666,25.011 -20.887,41.404 -0.222,16.393 6.98,31.684 19.759,41.954 l 9.324,7.492 c 3.512,2.821 7.717,4.192 11.896,4.192 5.562,0 11.075,-2.429 14.83,-7.102 6.577,-8.185 5.274,-20.15 -2.91,-26.727 z" />
	</g>
</g>
<g
   transform="matrix(0.01953129,0,0,0.02233168,0,-0.71688614)"
   id="g24">
	<g
   id="g22">
		<path
   id="path20"
   d="m 372.19,169.799 -10.936,-8.788 c -5.01,-4.026 -7.833,-10.021 -7.746,-16.447 0.086,-6.427 3.072,-12.343 8.188,-16.232 14.298,-10.866 22.75,-27.396 23.187,-45.349 0.437,-17.953 -7.197,-34.876 -20.948,-46.426 -8.04,-6.754 -20.031,-5.711 -26.782,2.328 -6.754,8.039 -5.711,20.03 2.328,26.782 4.854,4.077 7.549,10.05 7.394,16.387 -0.156,6.337 -3.139,12.171 -8.184,16.006 -14.497,11.017 -22.954,27.779 -23.2,45.987 -0.247,18.208 7.752,35.192 21.946,46.598 l 10.936,8.788 c 3.512,2.822 7.717,4.192 11.896,4.192 5.562,0 11.075,-2.43 14.83,-7.102 6.577,-8.183 5.274,-20.148 -2.909,-26.724 z" />
	</g>
</g>
<g
   transform="matrix(0.01953129,0,0,0.02233168,0,-0.71688614)"
   id="g30">
	<g
   id="g28">
		<path
   id="path26"
   d="m 448.161,159.962 -9.324,-7.492 c -3.595,-2.89 -5.622,-7.191 -5.558,-11.803 0.062,-4.612 2.204,-8.857 5.877,-11.648 12.874,-9.784 20.483,-24.665 20.877,-40.828 0.394,-16.163 -6.48,-31.399 -18.86,-41.799 -8.04,-6.752 -20.03,-5.709 -26.784,2.329 -6.752,8.039 -5.709,20.03 2.329,26.784 4.769,4.006 5.371,9.087 5.306,11.758 -0.067,2.672 -0.916,7.717 -5.874,11.486 -13.052,9.919 -20.666,25.011 -20.887,41.404 -0.222,16.393 6.98,31.684 19.759,41.954 l 9.324,7.492 c 3.512,2.821 7.717,4.192 11.896,4.192 5.562,0 11.075,-2.429 14.83,-7.102 6.576,-8.185 5.273,-20.15 -2.911,-26.727 z" />
	</g>
</g>
<g
   transform="translate(0,-32.101756)"
   id="g32">
</g>
<g
   transform="translate(0,-32.101756)"
   id="g34">
</g>
<g
   transform="translate(0,-32.101756)"
   id="g36">
</g>
<g
   transform="translate(0,-32.101756)"
   id="g38">
</g>
<g
   transform="translate(0,-32.101756)"
   id="g40">
</g>
<g
   transform="translate(0,-32.101756)"
   id="g42">
</g>
<g
   transform="translate(0,-32.101756)"
   id="g44">
</g>
<g
   transform="translate(0,-32.101756)"
   id="g46">
</g>
<g
   transform="translate(0,-32.101756)"
   id="g48">
</g>
<g
   transform="translate(0,-32.101756)"
   id="g50">
</g>
<g
   transform="translate(0,-32.101756)"
   id="g52">
</g>
<g
   transform="translate(0,-32.101756)"
   id="g54">
</g>
<g
   transform="translate(0,-32.101756)"
   id="g56">
</g>
<g
   transform="translate(0,-32.101756)"
   id="g58">
</g>
<g
   transform="translate(0,-32.101756)"
   id="g60">
</g>
</svg>
