<?xml version="1.0" encoding="iso-8859-1"?>
<!-- Generator: Adobe Illustrator 19.0.0, SVG Export Plug-In . SVG Version: 6.00 Build 0)  -->
<svg version="1.1" id="Layer_1" xmlns="http://www.w3.org/2000/svg" xmlns:xlink="http://www.w3.org/1999/xlink" x="0px" y="0px"
	 viewBox="0 0 512.784 512.784" style="enable-background:new 0 0 512.784 512.784;" xml:space="preserve">
<g>
	<g>
		<path d="M512.751,481.192c0-8.4-3.2-16-9.2-22l-220.4-199.2l52-54.8c7.2,3.2,15.2,5.2,23.2,5.2c15.2,0,29.2-6,39.6-16.4l5.6-5.6
			l106-106c3.2-3.2,3.2-8,0-11.2c-3.2-3.2-8-3.2-11.2,0l-105.2,104.8c-2.4,0-8-2-15.6-7.2l109.6-109.6c3.2-3.2,3.2-8,0-11.2
			c-3.2-3.2-8-3.2-11.2,0l-111.2,111.2c-2-1.6-4-3.6-6-5.6s-4-4-5.6-6l111.2-111.2c3.2-3.2,3.2-8,0-11.2s-8-3.2-11.2,0l-109.6,109.6
			c-5.2-8-7.2-13.6-7.2-15.6l105.2-105.2c3.2-3.2,3.2-8,0-11.2c-3.2-3.2-8-3.2-11.2,0l-106,105.6l-5.6,5.6
			c-10.8,10.8-16.4,24.8-16.4,39.6c0,6.4,0,12.4,2,18l-34.437,32.141c0.015-0.044,0.037-0.082,0.037-0.141c0-0.4,0.4-0.4,0-0.8v-0.4
			c0-0.4-0.4-0.8-0.4-0.8c-1.6-1.2-136-126.4-227.2-181.6c-18.4-10.8-29.6-5.6-36,0.8c-4,4-6,8.8-6,14.4c0,5.2,2,10.4,6,14.4
			l209.6,209.6l-206.8,200.4c-12,12-12.4,32,0,44c6,6,14,8.8,21.6,8.8c8,0,16-3.2,22.4-9.2l198-209.2l208.8,209.2
			c6,6,13.6,9.2,22,9.2c8.4,0,16-3.2,22-9.2S513.151,489.592,512.751,481.192z M268.351,204.392h0.857l-0.857,0.8V204.392z"/>
	</g>
</g>
<g>
</g>
<g>
</g>
<g>
</g>
<g>
</g>
<g>
</g>
<g>
</g>
<g>
</g>
<g>
</g>
<g>
</g>
<g>
</g>
<g>
</g>
<g>
</g>
<g>
</g>
<g>
</g>
<g>
</g>
</svg>
