<?xml version="1.0" encoding="UTF-8" standalone="no"?>
<svg
   xmlns:dc="http://purl.org/dc/elements/1.1/"
   xmlns:cc="http://creativecommons.org/ns#"
   xmlns:rdf="http://www.w3.org/1999/02/22-rdf-syntax-ns#"
   xmlns:svg="http://www.w3.org/2000/svg"
   xmlns="http://www.w3.org/2000/svg"
   xmlns:sodipodi="http://sodipodi.sourceforge.net/DTD/sodipodi-0.dtd"
   xmlns:inkscape="http://www.inkscape.org/namespaces/inkscape"
   inkscape:version="1.0 (4035a4fb49, 2020-05-01)"
   height="7.0000005"
   width="7.0000024"
   sodipodi:docname="mushroom-svgrepo-com.svg"
   xml:space="preserve"
   viewBox="0 0 7.0000024 7.0000005"
   y="0px"
   x="0px"
   id="Layer_1"
   version="1.1"><metadata
   id="metadata43"><rdf:RDF><cc:Work
       rdf:about=""><dc:format>image/svg+xml</dc:format><dc:type
         rdf:resource="http://purl.org/dc/dcmitype/StillImage" /><dc:title></dc:title></cc:Work></rdf:RDF></metadata><defs
   id="defs41" /><sodipodi:namedview
   inkscape:current-layer="Layer_1"
   inkscape:window-maximized="1"
   inkscape:window-y="-11"
   inkscape:window-x="-11"
   inkscape:cy="289.90883"
   inkscape:cx="291.25786"
   inkscape:zoom="1.1048543"
   fit-margin-bottom="0"
   fit-margin-right="0"
   fit-margin-left="0"
   fit-margin-top="0"
   showgrid="false"
   id="namedview39"
   inkscape:window-height="986"
   inkscape:window-width="1920"
   inkscape:pageshadow="2"
   inkscape:pageopacity="0"
   guidetolerance="10"
   gridtolerance="10"
   objecttolerance="10"
   borderopacity="1"
   bordercolor="#666666"
   pagecolor="#ffffff" />
<g
   transform="matrix(0.01367188,0,0,0.01388889,0,-0.05555556)"
   id="g6">
	<g
   id="g4">
		<path
   id="path2"
   d="M 256,4 C 53.6,4 0,144.8 0,219.6 c 0,51.6 30.4,89.2 72,89.2 4.4,0 9.2,0 14,-0.4 26.4,-1.2 57.2,-4.8 87.2,-8.8 0.8,0 1.2,0 2,-0.4 -2.8,16.8 -8.4,44 -18.8,86.4 -10,39.6 -6.8,70.4 9.6,90.8 16.4,20.8 46.4,31.6 88.8,31.6 h 1.2 c 42.4,0 72.4,-10.8 88.8,-31.6 16,-20.4 19.2,-51.2 9.6,-90.8 -10.4,-42 -16,-69.6 -18.8,-86 0.8,0 2,0.4 2.8,0.4 30.4,4 61.6,8 88,8.8 4.8,0 9.2,0.4 13.6,0.4 41.6,0 72,-37.6 72,-89.2 C 512,144.8 458.4,4 256,4 Z" />
	</g>
</g>
<g
   transform="translate(0,-4)"
   id="g8">
</g>
<g
   transform="translate(0,-4)"
   id="g10">
</g>
<g
   transform="translate(0,-4)"
   id="g12">
</g>
<g
   transform="translate(0,-4)"
   id="g14">
</g>
<g
   transform="translate(0,-4)"
   id="g16">
</g>
<g
   transform="translate(0,-4)"
   id="g18">
</g>
<g
   transform="translate(0,-4)"
   id="g20">
</g>
<g
   transform="translate(0,-4)"
   id="g22">
</g>
<g
   transform="translate(0,-4)"
   id="g24">
</g>
<g
   transform="translate(0,-4)"
   id="g26">
</g>
<g
   transform="translate(0,-4)"
   id="g28">
</g>
<g
   transform="translate(0,-4)"
   id="g30">
</g>
<g
   transform="translate(0,-4)"
   id="g32">
</g>
<g
   transform="translate(0,-4)"
   id="g34">
</g>
<g
   transform="translate(0,-4)"
   id="g36">
</g>
</svg>
