<?xml version="1.0" encoding="iso-8859-1"?>
<!-- Generator: Adobe Illustrator 19.0.0, SVG Export Plug-In . SVG Version: 6.00 Build 0)  -->
<svg version="1.1" id="Layer_1" xmlns="http://www.w3.org/2000/svg" xmlns:xlink="http://www.w3.org/1999/xlink" x="0px" y="0px"
	 viewBox="0 0 512 512" style="enable-background:new 0 0 512 512;" xml:space="preserve">
<g>
	<g>
		<path d="M352.729,323.446l-25.602-8.747l-25.603-8.746c9.249-29.269,11.724-56.206,7.424-80.813l0.007-0.004
			c-3.414-0.075-6.874-0.661-10.278-1.824c-17.814-6.086-27.323-25.462-21.237-43.276c6.086-17.815,25.462-27.323,43.276-21.237
			c3.453,1.18,6.589,2.863,9.365,4.933c2.397-3.27,5.18-6.181,8.253-8.704c-20.444-16.701-46.033-27.324-73.991-29.099
			c1.033,4.501,1.596,9.178,1.596,13.989c0,33.944-27.183,61.64-60.92,62.512c1.114,5.199,1.739,10.574,1.805,16.077
			c0.272,22.245-8.26,43.135-24.022,58.821c-13.451,13.388-30.675,21.485-49.267,23.335c18.271,49.943,66.271,85.687,122.464,85.687
			c68.688,0,125.132-53.407,130-120.875C372.358,280.91,361.265,300.23,352.729,323.446z M207.304,339.478
			c-9.22,0-16.696-7.475-16.696-16.696s7.475-16.696,16.696-16.696c9.22,0,16.696,7.475,16.696,16.696
			S216.525,339.478,207.304,339.478z M240.696,367.304c-9.22,0-16.696-7.475-16.696-16.696s7.475-16.696,16.696-16.696
			c9.22,0,16.696,7.475,16.696,16.696S249.916,367.304,240.696,367.304z M249.043,322.783c-9.22,0-16.696-7.475-16.696-16.696
			s7.475-16.696,16.696-16.696c9.22,0,16.696,7.475,16.696,16.696S258.264,322.783,249.043,322.783z"/>
	</g>
</g>
<g>
	<g>
		<path d="M256,0C114.615,0,0,114.615,0,256s114.615,256,256,256s256-114.616,256-256S397.385,0,256,0z M419.635,261.511
			C416.718,349.254,344.44,419.738,256,419.738c-76.457,0-140.834-52.678-158.765-123.644c-10.839-3.989-20.808-10.3-29.26-18.66
			c-15.041-14.878-23.643-34.635-24.224-55.629c-0.094-3.411,0.024-6.853,0.353-10.231c0.78-8.014,4.679-15.2,10.98-20.235
			c6.327-5.057,14.592-7.375,22.685-6.355c0.672,0.086,1.367,0.117,2.054,0.097c6.613-0.195,12.236-5.728,12.528-12.336
			c0.027-0.598,0.013-1.199-0.039-1.781c-0.728-8.162,1.892-16.383,7.189-22.558c5.248-6.118,12.552-9.768,20.565-10.279
			c3.088-0.196,6.217-0.217,9.31-0.063c3.903,0.194,7.731,0.67,11.469,1.395c0.248-34.282,28.203-62.097,62.542-62.097
			c15.648,0,29.96,5.789,40.941,15.32c3.857-0.273,7.748-0.421,11.672-0.421c47.265,0,89.908,20.138,119.824,52.276
			c2.914,0.423,5.83,1.11,8.717,2.096c20.44,6.983,33.145,26.337,32.617,46.846c3.462,0.061,6.973,0.648,10.426,1.828
			c17.815,6.086,27.323,25.461,21.237,43.276C444.334,251.719,432.62,260.329,419.635,261.511z"/>
	</g>
</g>
<g>
</g>
<g>
</g>
<g>
</g>
<g>
</g>
<g>
</g>
<g>
</g>
<g>
</g>
<g>
</g>
<g>
</g>
<g>
</g>
<g>
</g>
<g>
</g>
<g>
</g>
<g>
</g>
<g>
</g>
</svg>
